<?xml version="1.0" encoding="iso-8859-1"?>
<!-- Generator: Adobe Illustrator 19.0.0, SVG Export Plug-In . SVG Version: 6.00 Build 0)  -->
<svg version="1.1" id="Layer_1" xmlns="http://www.w3.org/2000/svg" xmlns:xlink="http://www.w3.org/1999/xlink" x="0px" y="0px"
	 viewBox="0 0 512 512" style="enable-background:new 0 0 512 512;" xml:space="preserve">
<path style="fill:#FFA227;" d="M504.713,323.813H353.941V142.136c0-3.21,2.604-5.812,5.816-5.812h90.835
	c1.976,0,3.817,1.003,4.888,2.663l48.885,75.775c0.227,0.352,0.348,0.762,0.348,1.182V323.813z"/>
<path style="fill:#F78B0B;" d="M504.365,214.762l-48.885-75.775c-1.071-1.66-2.912-2.663-4.888-2.663h-28.374
	c1.976,0,3.817,1.003,4.888,2.663l48.885,75.775c0.227,0.352,0.348,0.762,0.348,1.182v107.869h28.373v-107.87
	C504.713,215.524,504.592,215.115,504.365,214.762z"/>
<path style="fill:#B3B3B3;" d="M21.018,343.368h471.455c6.76,0,12.241-5.48,12.241-12.241v-16.064H21.018
	c-4.561,0-8.258,3.697-8.258,8.258v11.789C12.76,339.671,16.457,343.368,21.018,343.368z"/>
<path style="fill:#AEFFFF;" d="M478.991,223.512L478.991,223.512c0-0.419-0.121-0.829-0.348-1.182l-37.637-58.34
	c-0.788-1.222-2.143-1.96-3.598-1.96h-53.463c-2.364,0-4.281,1.915-4.281,4.278v55.106c0,2.363,1.917,4.278,4.281,4.278h92.864
	C478.014,225.693,478.991,224.717,478.991,223.512z"/>
<path style="fill:#84F1F7;" d="M478.643,222.331l-37.637-58.34c-0.788-1.222-2.143-1.96-3.598-1.96H407.55
	c1.455,0,2.81,0.738,3.598,1.96l39.76,61.703h25.902c1.205,0,2.182-0.976,2.182-2.18
	C478.991,223.093,478.87,222.684,478.643,222.331z"/>
<path style="fill:#FFCC5A;" d="M269.682,137.365H74.494c-37.118,0-67.207,30.09-67.207,67.207v19.964
	c0,37.118,30.09,67.207,67.207,67.207h195.188c37.118,0,67.207-30.09,67.207-67.207v-19.964
	C336.889,167.454,306.8,137.365,269.682,137.365z"/>
<path style="fill:#FFB000;" d="M308.516,149.74v76.968c0,19.984-16.21,36.185-36.206,36.185H19.317
	c12.145,17.433,32.332,28.851,55.198,28.851h195.148c37.129,0,67.228-30.081,67.228-67.187v-20.004
	C336.889,181.919,325.679,161.913,308.516,149.74z"/>
<path style="fill:#FFA227;" d="M194.57,117.962h-58.829c-10.722,0-19.414,8.687-19.414,19.402l0,0h97.658l0,0
	C213.984,126.65,205.292,117.962,194.57,117.962z"/>
<g>
	<path style="fill:#B3B3B3;" d="M29.749,274.668v40.395h28.703v-25.264C47.613,287.143,37.809,281.865,29.749,274.668z"/>
	<path style="fill:#B3B3B3;" d="M289.42,288.793v26.271h28.374v-43.609C310.031,279.409,300.319,285.451,289.42,288.793z"/>
</g>
<path style="fill:#999999;" d="M504.713,315.064H476.34v28.305h16.129c6.762,0,12.243-5.477,12.244-12.235L504.713,315.064
	L504.713,315.064z"/>
<ellipse style="fill:#686868;" cx="413.31" cy="347.12" rx="46.947" ry="46.918"/>
<path style="fill:#4F4F4F;" d="M413.306,300.2c-4.954,0-9.726,0.772-14.209,2.194c18.98,6.018,32.737,23.763,32.737,44.725
	c0,20.961-13.757,38.707-32.737,44.724c4.483,1.421,9.255,2.194,14.209,2.194c25.928,0,46.947-21.006,46.947-46.918
	C460.252,321.206,439.234,300.2,413.306,300.2z"/>
<ellipse style="fill:#686868;" cx="108.75" cy="347.12" rx="46.947" ry="46.918"/>
<path style="fill:#4F4F4F;" d="M108.745,300.2c-4.954,0-9.726,0.772-14.209,2.194c18.98,6.018,32.737,23.763,32.737,44.725
	c0,20.961-13.757,38.707-32.737,44.724c4.483,1.421,9.255,2.194,14.209,2.194c25.928,0,46.947-21.006,46.947-46.918
	C155.691,321.206,134.673,300.2,108.745,300.2z"/>
<g>
	<ellipse style="fill:#B3B3B3;" cx="413.31" cy="347.12" rx="19.562" ry="19.551"/>
	<ellipse style="fill:#B3B3B3;" cx="108.75" cy="347.12" rx="19.562" ry="19.551"/>
</g>
<g>
	<path style="fill:#051C1B;" d="M372.378,251.027v9.943c0,4.025,3.262,7.287,7.287,7.287s7.287-3.262,7.287-7.287v-9.943
		c0-4.025-3.262-7.287-7.287-7.287C375.639,243.742,372.378,247.003,372.378,251.027z"/>
	<path style="fill:#051C1B;" d="M504.713,258.428c4.025,0,7.287-3.262,7.287-7.287v-35.198c0-1.822-0.522-3.595-1.511-5.131
		l-48.884-75.773c-2.422-3.758-6.539-6.002-11.012-6.002h-90.835c-7.225,0-13.102,5.876-13.102,13.099v165.64H325.08v-33.501
		c11.863-13.199,19.096-30.638,19.096-49.739v-19.964c0-41.076-33.417-74.494-74.493-74.494h-49.432
		c-3.181-11.184-13.485-19.402-25.68-19.402h-58.829c-12.195,0-22.5,8.218-25.681,19.402h-9.506c-4.025,0-7.287,3.262-7.287,7.287
		c0,4.025,3.262,7.287,7.287,7.287h15.772h97.657h55.698c33.04,0,59.92,26.88,59.92,59.921v19.964c0,33.04-26.88,59.92-59.92,59.92
		H74.494c-4.844,0-9.595-0.58-14.173-1.69c-0.047-0.012-0.089-0.034-0.136-0.046c-9.446-2.315-18.293-6.979-25.584-13.49
		c-0.079-0.071-0.168-0.125-0.249-0.192c-5.132-4.633-9.509-10.19-12.861-16.524c-4.205-7.948-6.517-16.555-6.872-25.577
		c-0.03-0.797-0.046-1.599-0.046-2.403v-19.964c0-31.943,24.966-58.23,56.836-59.843c4.019-0.203,7.113-3.626,6.909-7.645
		c-0.203-4.018-3.584-7.102-7.645-6.909C31.043,132.18,0,164.86,0,204.572v19.964c0,0.992,0.02,1.98,0.058,2.969
		c0.441,11.227,3.319,21.935,8.553,31.827c3.694,6.98,8.389,13.203,13.851,18.539v29.905h-1.444
		c-8.571,0-15.545,6.973-15.545,15.545v11.789c0,8.571,6.973,15.544,15.545,15.544h33.621c1.83,28.245,25.391,50.669,54.105,50.669
		s52.275-22.423,54.105-50.669H359.2c1.83,28.245,25.39,50.669,54.104,50.669s52.275-22.423,54.105-50.669h25.062
		c10.768,0,19.528-8.76,19.528-19.528v-16.064v-34.532c0-4.025-3.262-7.287-7.287-7.287s-7.287,3.262-7.287,7.287v27.246h-46.872
		c0.001,0.001,0.002,0.002,0.002,0.002c-9.724-9.203-22.835-14.866-37.252-14.866c-14.417,0-27.527,5.662-37.25,14.865l0.001-0.001
		h-14.829V143.61h88.564l47.636,73.838v33.694C497.427,255.167,500.689,258.428,504.713,258.428z M126.057,130.078
		c2.216-2.932,5.732-4.829,9.684-4.829h58.829c3.952,0,7.468,1.898,9.683,4.829H126.057z M296.706,293.967
		c0.425-0.166,0.838-0.357,1.259-0.53c0.414-0.171,0.827-0.343,1.237-0.521c0.742-0.321,1.477-0.655,2.208-1
		c0.374-0.177,0.745-0.357,1.115-0.54c0.758-0.373,1.509-0.757,2.254-1.156c0.312-0.167,0.621-0.34,0.93-0.511
		c0.794-0.44,1.581-0.889,2.359-1.358c0.214-0.129,0.425-0.264,0.637-0.395c0.602-0.371,1.21-0.728,1.801-1.116v20.935h-13.801
		v-13.808H296.706z M282.133,297.97v9.807H145.994c0.001,0.001,0.002,0.002,0.002,0.002c-3.649-3.453-7.774-6.406-12.27-8.748
		h135.957C273.926,299.03,278.081,298.655,282.133,297.97z M83.764,299.03c-4.496,2.342-8.621,5.295-12.271,8.749
		c0.001-0.001,0.002-0.002,0.002-0.002h-5.756v-9.268c2.884,0.339,5.804,0.522,8.755,0.522L83.764,299.03L83.764,299.03z
		 M37.035,288.946c4.463,2.595,9.196,4.726,14.131,6.348v12.482H37.035V288.946z M20.046,335.111v-11.789
		c0-0.536,0.435-0.972,0.972-0.972h8.731h28.704h2.077c-2.211,4.281-3.878,8.886-4.885,13.732v-0.001H21.019
		C20.482,336.082,20.046,335.646,20.046,335.111z M108.745,386.75c-21.869,0-39.66-17.779-39.66-39.632s17.791-39.632,39.66-39.632
		s39.66,17.779,39.66,39.632S130.614,386.75,108.745,386.75z M497.427,331.127c0,2.732-2.223,4.954-4.954,4.954h-26.067v0.001
		c-1.007-4.847-2.674-9.451-4.885-13.732h35.906V331.127z M413.306,307.487c21.869,0,39.66,17.779,39.66,39.632
		s-17.791,39.632-39.66,39.632c-21.868,0-39.659-17.779-39.659-39.632S391.437,307.487,413.306,307.487z M365.091,322.35
		c-2.211,4.281-3.878,8.885-4.884,13.732H161.845v0.001c-1.007-4.847-2.674-9.451-4.885-13.732h132.459h28.374h36.148h11.15V322.35z
		"/>
	<path style="fill:#051C1B;" d="M413.306,373.954c14.805,0,26.849-12.039,26.849-26.837s-12.045-26.837-26.849-26.837
		c-14.805,0-26.848,12.039-26.848,26.837S398.501,373.954,413.306,373.954z M413.306,334.855c6.769,0,12.276,5.502,12.276,12.264
		s-5.507,12.264-12.276,12.264s-12.275-5.502-12.275-12.264C401.03,340.357,406.537,334.855,413.306,334.855z"/>
	<path style="fill:#051C1B;" d="M108.745,320.282c-14.805,0-26.849,12.039-26.849,26.837s12.045,26.837,26.849,26.837
		s26.849-12.039,26.849-26.837S123.549,320.282,108.745,320.282z M108.745,359.382c-6.769,0-12.276-5.502-12.276-12.264
		s5.507-12.264,12.276-12.264s12.276,5.502,12.276,12.264C121.021,353.88,115.514,359.382,108.745,359.382z"/>
	<path style="fill:#051C1B;" d="M486.277,223.512c0-1.828-0.525-3.605-1.511-5.131l-37.638-58.342
		c-2.139-3.316-5.773-5.296-9.72-5.296h-53.463c-6.379,0-11.567,5.188-11.567,11.565v55.105c0,6.378,5.189,11.565,11.567,11.565
		h92.864C482.029,232.98,486.277,228.732,486.277,223.512z M386.951,218.408v-49.09h48.82l31.669,49.09H386.951z"/>
</g>
<g>
</g>
<g>
</g>
<g>
</g>
<g>
</g>
<g>
</g>
<g>
</g>
<g>
</g>
<g>
</g>
<g>
</g>
<g>
</g>
<g>
</g>
<g>
</g>
<g>
</g>
<g>
</g>
<g>
</g>
</svg>
