<?xml version="1.0" encoding="iso-8859-1"?>
<!-- Generator: Adobe Illustrator 19.0.0, SVG Export Plug-In . SVG Version: 6.00 Build 0)  -->
<svg version="1.1" id="Capa_1" xmlns="http://www.w3.org/2000/svg" xmlns:xlink="http://www.w3.org/1999/xlink" x="0px" y="0px"
	 viewBox="0 0 512 512" style="enable-background:new 0 0 512 512;" xml:space="preserve">
<g>
	<path style="fill:#626169;" d="M442.949,81.861h-30V59.438c-0.006-0.444-0.164-8.65-3.895-16.231
		c-4.288-8.716-11.146-12.603-22.233-12.603v-30c15.802,0,29.334,5.233,39.135,15.136c16.591,16.763,17.013,40.665,16.993,43.822
		L442.949,81.861L442.949,81.861z"/>
	<path style="fill:#626169;" d="M444.43,166.25v158.14c0,35.33-28.75,64.08-64.08,64.08c-12.52,0-24.21-3.61-34.09-9.84
		c-5.66-3.56-10.72-7.99-15-13.09c-9.36-11.14-15-25.5-15-41.15v-67.34h30v67.34c0,18.79,15.29,34.08,34.09,34.08
		c18.79,0,34.08-15.29,34.08-34.08V166.25H444.43z"/>
</g>
<rect x="75.24" style="fill:#FF633E;" width="271.02" height="453.56"/>
<rect x="390.68" y="70.22" style="fill:#FF9A00;" width="77.5" height="111.03"/>
<rect x="429.43" y="70.22" style="fill:#E67500;" width="38.75" height="111.03"/>
<rect x="210.76" style="fill:#FF3300;" width="135.5" height="453.56"/>
<rect x="43.82" y="423.56" style="fill:#8B8992;" width="333.87" height="88.44"/>
<rect x="130.57" y="44" style="fill:#C8C6CD;" width="160.36" height="142.55"/>
<rect x="75.24" y="229" style="fill:#8B8992;" width="271.02" height="30"/>
<rect x="210.76" y="44" style="fill:#ADACB2;" width="80.17" height="142.55"/>
<g>
	<rect x="210.76" y="229" style="fill:#626169;" width="135.5" height="30"/>
	<rect x="210.76" y="423.56" style="fill:#626169;" width="166.93" height="88.44"/>
</g>
<g>
</g>
<g>
</g>
<g>
</g>
<g>
</g>
<g>
</g>
<g>
</g>
<g>
</g>
<g>
</g>
<g>
</g>
<g>
</g>
<g>
</g>
<g>
</g>
<g>
</g>
<g>
</g>
<g>
</g>
</svg>
