<?xml version="1.0" encoding="iso-8859-1"?>
<!-- Generator: Adobe Illustrator 19.0.0, SVG Export Plug-In . SVG Version: 6.00 Build 0)  -->
<svg version="1.1" id="Capa_1" xmlns="http://www.w3.org/2000/svg" xmlns:xlink="http://www.w3.org/1999/xlink" x="0px" y="0px"
	 viewBox="0 0 49.132 49.132" style="enable-background:new 0 0 49.132 49.132;" xml:space="preserve">
<g>
	<g>
		<path d="M32.323,14.222c-4.998,0-9.051,3.905-9.051,8.728c0,4.818,9.051,14.545,9.051,14.545s9.05-9.727,9.05-14.545
			C41.374,18.128,37.321,14.222,32.323,14.222z M32.323,26.505c-2.144,0-3.879-1.736-3.879-3.879c0-2.142,1.736-3.879,3.879-3.879
			c2.142,0,3.879,1.736,3.879,3.879S34.466,26.505,32.323,26.505z"/>
	</g>
</g>
<g>
	<g>
		<path d="M24.566,0c-3.167,0-6.191,0.606-8.97,1.697c0.77,1.366,1.212,2.936,1.212,4.606c0,4.28-5.118,10.303-7.319,12.694
			l-2.378,2.585l-2.378-2.585c-0.757-0.822-1.859-2.08-2.98-3.543C0.626,18.272,0,21.345,0,24.566
			c0,13.567,10.997,24.566,24.566,24.566c13.569,0,24.566-10.999,24.566-24.566C49.132,10.999,38.134,0,24.566,0z M34.69,39.697
			l-2.367,2.543l-2.367-2.543c-0.289-0.31-0.66-0.716-1.088-1.198c-0.476,0.265-1.056,0.425-1.525,0.389l-2.826-0.217
			c-0.709-0.055-1.122-0.657-0.917-1.338l0.504-1.68c0.204-0.681-0.122-1.547-0.725-1.924l-1.133-0.709
			c-0.603-0.377-1.445-0.22-1.872,0.349l-3.437,4.585c-0.427,0.568-0.31,1.383,0.259,1.809l1.257,0.943
			c0.569,0.426,0.872,1.334,0.674,2.017l-0.303,1.041C13.8,42.259,9.602,38.833,7.08,34.342l0.771-0.69
			c0.529-0.475,1.082-1.433,1.227-2.129l0.175-0.842c0.145-0.696-0.138-1.685-0.63-2.198l-0.879-0.917
			c-0.492-0.513-0.394-1.23,0.218-1.592l1.57-0.93c0.612-0.363,1.602-0.343,2.2,0.041l1.566,1.008
			c0.598,0.385,1.601,0.427,2.229,0.094l1.915-1.016c0.628-0.334,1.272-1.173,1.432-1.866l0.31-1.351
			c0.16-0.693,0.047-1.789-0.25-2.435l-1.096-2.385c-0.297-0.646-0.012-1.419,0.634-1.717l2.593-1.197
			c0.646-0.298,1.279-1.114,1.407-1.813l0.383-2.086c0.128-0.7-0.105-1.745-0.517-2.325l-1.475-2.072
			c-0.191-0.269-0.302-0.626-0.335-0.992c1.305-0.266,2.654-0.407,4.036-0.407c8.749,0,16.197,5.638,18.923,13.47
			c0.711,1.512,1.118,3.187,1.118,4.955C44.606,28.6,37.016,37.197,34.69,39.697z"/>
	</g>
</g>
<g>
	<g>
		<path d="M7.111,0C3.542,0,0.646,2.82,0.646,6.303c0,3.481,6.465,10.505,6.465,10.505s6.465-7.025,6.465-10.505
			C13.576,2.82,10.681,0,7.111,0z M7.11,8.404c-1.429,0-2.585-1.158-2.585-2.586c0-1.429,1.156-2.586,2.585-2.586
			c1.429,0,2.586,1.157,2.586,2.586C9.697,7.246,8.539,8.404,7.11,8.404z"/>
	</g>
</g>
<g>
</g>
<g>
</g>
<g>
</g>
<g>
</g>
<g>
</g>
<g>
</g>
<g>
</g>
<g>
</g>
<g>
</g>
<g>
</g>
<g>
</g>
<g>
</g>
<g>
</g>
<g>
</g>
<g>
</g>
</svg>
