<?xml version="1.0" encoding="iso-8859-1"?>
<!-- Generator: Adobe Illustrator 19.0.0, SVG Export Plug-In . SVG Version: 6.00 Build 0)  -->
<svg version="1.1" id="Capa_1" xmlns="http://www.w3.org/2000/svg" xmlns:xlink="http://www.w3.org/1999/xlink" x="0px" y="0px"
	 viewBox="0 0 53.772 53.772" style="enable-background:new 0 0 53.772 53.772;" xml:space="preserve">
<g>
	<g>
		<path d="M17.161,43.107l5.181-7.472c2.303,1.222,4.928,1.917,7.717,1.917c3.668,0,7.055-1.199,9.793-3.225l9.807,9.807
			l4.113-4.113l-9.923-9.924c1.702-2.594,2.695-5.695,2.695-9.03c0-9.104-7.379-16.484-16.485-16.484
			c-9.107,0-16.485,7.38-16.485,16.484c0,5.156,2.367,9.758,6.073,12.781l-3.194,4.615l-5.731-4.458l-6.198,7.748V9.754H0v32.97
			c0,1.261,0.366,2.44,0.997,3.438L0.96,46.208l0.142,0.113c1.164,1.725,3.137,2.867,5.363,2.867h38.141v-4.525H6.465
			c-0.041,0-0.083-0.001-0.125-0.004l4.916-6.146L17.161,43.107z M16.807,21.067c0-7.308,5.945-13.252,13.253-13.252
			s13.253,5.944,13.253,13.252S37.368,34.32,30.06,34.32S16.807,28.375,16.807,21.067z"/>
	</g>
</g>
<g>
	<g>
		<path d="M35.837,13.633l-11.815,3.825l4.36,3.075l-5.384,7.635c1.074,1.068,2.391,1.888,3.856,2.384l5.227-7.412l4.12,2.906
			L35.837,13.633z"/>
	</g>
</g>
<g>
</g>
<g>
</g>
<g>
</g>
<g>
</g>
<g>
</g>
<g>
</g>
<g>
</g>
<g>
</g>
<g>
</g>
<g>
</g>
<g>
</g>
<g>
</g>
<g>
</g>
<g>
</g>
<g>
</g>
</svg>
