<?xml version='1.0' encoding='iso-8859-1'?>
<svg version="1.1" xmlns="http://www.w3.org/2000/svg" viewBox="0 0 487.4 487.4" xmlns:xlink="http://www.w3.org/1999/xlink" enable-background="new 0 0 487.4 487.4">
  <g>
    <g>
      <path d="m403.4,40.35v-35.2h-20.7v35.3h-128.6v-35.3h-20.7v35.3h-128.7v-35.3h-20.7v35.3h-84v441.8h487.4v-441.9h-84zm63.3,421.1h-446v-298.7h446v298.7zm0-319.4h-446v-80.9h63.3v49.8h20.7v-49.8h128.6v49.8h20.7v-49.8h128.7v49.8h20.7v-49.8h63.3v80.9z"/>
      <path d="m159.7,245.65c9.3,0 16.6,3.1 22.8,8.3 6.2,5.2 9.3,12.4 9.3,19.7 0,7.3-3.1,15.6-8.3,22.8-5.2,7.3-14.5,17.6-28,32.2l-59.1,59.1v28h132.7v-31.1h-88.2l45.8-46.6c14.5-14.5 23.9-25.9 29-35.3 5.2-9.3 8.3-18.7 8.3-29 0-17.6-6.2-32.2-18.7-42.5-12.4-10.4-25.9-15.6-42.5-15.6s-30.1,3.1-40.4,9.3c-10.4,6.2-19.7,16.6-28,29l24.9,16.6c11.4-16.6 24.9-24.9 40.4-24.9z"/>
      <polygon points="339.1,414.75 370.2,414.75 370.2,366.05 394.1,366.05 394.1,335.95 370.2,335.95 370.2,300.65 339.1,300.65     339.1,335.95 292.4,335.95 363,219.75 326.7,219.75 255.1,336.95 255.1,366.05 339.1,366.05   "/>
    </g>
  </g>
</svg>
